<svg height="512pt" viewBox="0 -126 512 512" width="512pt" xmlns="http://www.w3.org/2000/svg"><path d="m93.597656 95.6875c41.226563 11.75 99.808594-26.617188 122.039063 49.972656-82.933594 34.03125-114.117188-19.253906-122.039063-49.972656zm162.402344-59.152344c-64.839844-59.054687-156.613281 2.957032-246-24.171875 0 88.988281 17.332031 237.589844 121.40625 237.589844 70.085938 0 81.074219-46.277344 124.59375-46.277344s54.507812 46.277344 124.59375 46.277344c104.074219 0 121.40625-148.601563 121.40625-237.589844-89.386719 27.128907-181.160156-34.882812-246 24.171875zm40.363281 109.125c22.234375-76.589844 80.8125-38.222656 122.039063-49.972656-7.921875 30.71875-39.105469 84.003906-122.039063 49.972656zm0 0" fill="#ff6977" fill-rule="evenodd"/><path d="m426.414062 226.289062c-13.210937 9.066407-28.625 13.664063-45.816406 13.664063-36.050781 0-54.550781-12.929687-72.441406-25.433594-14.664062-10.246093-29.828125-20.84375-52.15625-20.84375s-37.492188 10.597657-52.15625 20.84375c-17.890625 12.503907-36.386719 25.433594-72.4375 25.433594-94.640625 0-109.816406-141.007813-111.277344-214.640625 5.324219 1.148438 10.789063 2.0625 16.488282 2.757812 5.472656.675782 10.46875-3.230468 11.136718-8.714843.667969-5.480469-3.234375-10.46875-8.714844-11.136719-9.28125-1.132812-17.828124-2.90625-26.132812-5.425781-3.03125-.921875-6.316406-.351563-8.859375 1.535156-2.546875 1.886719-4.046875 4.867187-4.046875 8.035156 0 42.683594 3.863281 104.320313 22.265625 155.542969 9.9375 27.667969 23.195313 49.4375 39.40625 64.714844 19.246094 18.132812 42.707031 27.332031 69.734375 27.332031 42.34375 0 65.382812-16.101563 83.894531-29.039063 13.78125-9.632812 24.667969-17.238281 40.699219-17.238281s26.917969 7.605469 40.699219 17.238281c18.511719 12.9375 41.550781 29.039063 83.898437 29.039063 21.308594 0 40.53125-5.78125 57.136719-17.175781 4.550781-3.125 5.710937-9.351563 2.585937-13.90625-3.128906-4.550782-9.351562-5.710938-13.90625-2.582032zm0 0"/><path d="m507.957031 4.328125c-2.542969-1.882813-5.828125-2.457031-8.859375-1.535156-36.414062 11.054687-73.921875 6.402343-110.191406 1.90625-25.332031-3.140625-49.265625-6.109375-72.507812-3.980469-23.660157 2.167969-43.503907 9.632812-60.398438 22.75-16.890625-13.117188-36.738281-20.582031-60.398438-22.75-23.246093-2.125-47.171874.839844-72.507812 3.980469l-6.519531.804687c-5.480469.671875-9.378907 5.660156-8.710938 11.140625.671875 5.484375 5.65625 9.382813 11.144531 8.710938l6.546876-.808594c48.378906-6 90.160156-11.179687 123.714843 19.382813 3.816407 3.476562 9.648438 3.476562 13.464844 0 33.550781-30.558594 75.332031-25.378907 123.710937-19.382813 34.21875 4.242187 69.476563 8.613281 105.4375.773437-.785156 41.710938-5.667968 96.117188-22.703124 140.488282-1.976563 5.15625.597656 10.9375 5.753906 12.917968 1.179687.453126 2.390625.667969 3.582031.667969 4.019531 0 7.808594-2.441406 9.335937-6.417969 19.960938-51.988281 24.148438-116.039062 24.148438-160.613281 0-3.167969-1.5-6.148437-4.042969-8.035156zm0 0"/><path d="m345.296875 166.648438c13.613281 0 26.09375-2.820313 37.355469-8.460938 31.054687-15.5625 42.117187-47.148438 45.433594-60.003906.894531-3.472656-.136719-7.15625-2.703126-9.65625-2.5625-2.503906-6.273437-3.441406-9.722656-2.457032-10.789062 3.074219-23.667968 2.121094-37.300781 1.113282-32.902344-2.4375-73.847656-5.46875-91.601563 55.6875-1.421874 4.90625 1.082032 10.097656 5.808594 12.039062 19.066406 7.824219 36.6875 11.738282 52.730469 11.738282zm31.585937-59.519532c8.773438.648438 17.726563 1.3125 26.523438.894532-5.167969 11.175781-14.242188 24.527343-29.714844 32.28125-17.226562 8.632812-39.003906 8.429687-64.828125-.585938 13.863281-36.601562 38.003907-34.8125 68.019531-32.589844zm0 0"/><path d="m83.914062 98.183594c3.316407 12.855468 14.378907 44.4375 45.433594 60 11.261719 5.644531 23.738282 8.464844 37.359375 8.464844 16.039063 0 33.664063-3.914063 52.726563-11.738282 4.730468-1.941406 7.234375-7.132812 5.808594-12.039062-17.753907-61.15625-58.699219-58.125-91.601563-55.6875-13.632813 1.007812-26.507813 1.960937-37.300781-1.113282-3.445313-.984374-7.15625-.046874-9.722656 2.457032-2.566407 2.5-3.597657 6.183594-2.703126 9.65625zm51.203126 8.945312c30.015624-2.222656 54.160156-4.011718 68.023437 32.589844-25.828125 9.015625-47.605469 9.21875-64.832031.585938-15.472656-7.753907-24.546875-21.105469-29.714844-32.28125 8.800781.417968 17.75-.246094 26.523438-.894532zm0 0"/><path d="m77.921875 29.234375c.210937 0 .421875-.003906.636719-.019531 5.511718-.34375 9.699218-5.09375 9.355468-10.605469s-5.078124-9.699219-10.605468-9.355469h-.007813c-5.511719.34375-9.695312 5.089844-9.351562 10.605469.328125 5.296875 4.734375 9.375 9.972656 9.375zm0 0"/><path d="m465.746094 197.097656c-4.597656-3.0625-10.804688-1.820312-13.867188 2.773438l-.003906.007812c-3.0625 4.59375-1.820312 10.800782 2.773438 13.863282 1.703124 1.136718 3.628906 1.679687 5.535156 1.679687 3.234375 0 6.40625-1.566406 8.335937-4.457031 3.0625-4.59375 1.820313-10.800782-2.773437-13.867188zm0 0"/></svg>